# xmcd
#
# Track frame offsets:
#	150
#	22537
#	41637
#	70717
#	101375
#	129410
#	164720
#
# Disc length: 2565 seconds
#
# Revision: 0
# Processed by: cddbd v1.4PL0 Copyright (c) Steve Scherf et al.
# Submitted via: audiograbber 1.82.02
#
DISCID=4e0a0307
DTITLE=Paster Peter Tan - Praise and Worship CD 1
DYEAR=1900
DGENRE=
TTITLE0=Abundant Living Joy
TTITLE1=Rejoice to the Lord Always
TTITLE2=This Is the Day That The Lord Made
TTITLE3=Shout to the Lord
TTITLE4=Worthy Worthy
TTITLE5=I Love You
TTITLE6=Lord You Fill My Heart with Praise
EXTD=
EXTT0=
EXTT1=
EXTT2=
EXTT3=
EXTT4=
EXTT5=
EXTT6=
PLAYORDER=
